<?xml version="1.0" encoding="UTF-8" standalone="no"?>
<svg
   height="128px"
   viewBox="0 0 128 128"
   width="128px"
   version="1.1"
   id="svg57"
   sodipodi:docname="io.github.nokse22.ultimate-tic-tac-toe.svg"
   inkscape:version="1.3 (0e150ed6c4, 2023-07-21)"
   xmlns:inkscape="http://www.inkscape.org/namespaces/inkscape"
   xmlns:sodipodi="http://sodipodi.sourceforge.net/DTD/sodipodi-0.dtd"
   xmlns="http://www.w3.org/2000/svg"
   xmlns:svg="http://www.w3.org/2000/svg">
  <defs
     id="defs57" />
  <sodipodi:namedview
     id="namedview57"
     pagecolor="#ffffff"
     bordercolor="#999999"
     borderopacity="1"
     inkscape:showpageshadow="2"
     inkscape:pageopacity="0"
     inkscape:pagecheckerboard="0"
     inkscape:deskcolor="#d1d1d1"
     inkscape:zoom="3.0429688"
     inkscape:cx="44.693196"
     inkscape:cy="33.684211"
     inkscape:window-width="1920"
     inkscape:window-height="1011"
     inkscape:window-x="0"
     inkscape:window-y="0"
     inkscape:window-maximized="1"
     inkscape:current-layer="svg57" />
  <linearGradient
     id="a"
     gradientTransform="matrix(0.232143 0 0 0.328947 -9.566589 263.826935)"
     gradientUnits="userSpaceOnUse"
     x1="88.595886"
     x2="536.595886"
     y1="-449.394012"
     y2="-449.394012">
    <stop
       offset="0"
       stop-color="#77767b"
       id="stop1" />
    <stop
       offset="0.0384615"
       stop-color="#c0bfbc"
       id="stop2" />
    <stop
       offset="0.0768555"
       stop-color="#9a9996"
       id="stop3" />
    <stop
       offset="0.923077"
       stop-color="#9a9996"
       id="stop4" />
    <stop
       offset="0.961538"
       stop-color="#c0bfbc"
       id="stop5" />
    <stop
       offset="1"
       stop-color="#77767b"
       id="stop6" />
  </linearGradient>
  <path
     d="m 19 16 h 88 c 4.417969 0 8 3.582031 8 8 v 84 c 0 4.417969 -3.582031 8 -8 8 h -88 c -4.417969 0 -8 -3.582031 -8 -8 v -84 c 0 -4.417969 3.582031 -8 8 -8 z m 0 0"
     fill="url(#a)"
     id="path6" />
  <path
     d="m 19 8 h 88 c 4.417969 0 8 3.726562 8 8.320312 v 87.359376 c 0 4.59375 -3.582031 8.320312 -8 8.320312 h -88 c -4.417969 0 -8 -3.726562 -8 -8.320312 v -87.359376 c 0 -4.59375 3.582031 -8.320312 8 -8.320312 z m 0 0"
     fill="#ffffff"
     id="path7" />
  <g
     stroke-linecap="round"
     id="g57">
    <path
       d="m 47 106 v -92"
       fill="none"
       stroke="#c0bfbc"
       stroke-linejoin="round"
       stroke-width="1.00157"
       id="path8" />
    <path
       d="m 79 106 v -92"
       fill="none"
       stroke="#c0bfbc"
       stroke-linejoin="round"
       stroke-width="1.00157"
       id="path9" />
    <path
       d="m 15 44 h 96"
       fill="none"
       stroke="#c0bfbc"
       stroke-linejoin="round"
       stroke-width="1.00157"
       id="path10" />
    <path
       d="m 15 76 h 96"
       fill="none"
       stroke="#c0bfbc"
       stroke-linejoin="round"
       stroke-width="1.00157"
       id="path11" />
    <path
       d="m 58 40 v -24"
       fill="none"
       stroke="#d8d8d8"
       stroke-linejoin="round"
       stroke-width="1.00157"
       id="path12" />
    <path
       d="m 68 40 v -24"
       fill="none"
       stroke="#d8d8d8"
       stroke-linejoin="round"
       stroke-width="1.00157"
       id="path13" />
    <path
       d="m 51 23 h 24"
       fill="none"
       stroke="#d8d8d8"
       stroke-linejoin="round"
       stroke-width="1.00157"
       id="path14" />
    <path
       d="m 51 33 h 24"
       fill="none"
       stroke="#d8d8d8"
       stroke-linejoin="round"
       stroke-width="1.00157"
       id="path15" />
    <path
       d="m 90 40 v -24"
       fill="none"
       stroke="#d8d8d8"
       stroke-linejoin="round"
       stroke-width="1.00157"
       id="path16" />
    <path
       d="m 100 40 v -24"
       fill="none"
       stroke="#d8d8d8"
       stroke-linejoin="round"
       stroke-width="1.00157"
       id="path17" />
    <path
       d="m 83 23 h 24"
       fill="none"
       stroke="#d8d8d8"
       stroke-linejoin="round"
       stroke-width="1.00157"
       id="path18" />
    <path
       d="m 83 33 h 24"
       fill="none"
       stroke="#d8d8d8"
       stroke-linejoin="round"
       stroke-width="1.00157"
       id="path19" />
    <path
       d="m 90 72 v -24"
       fill="none"
       stroke="#d8d8d8"
       stroke-linejoin="round"
       stroke-width="1.00157"
       id="path20" />
    <path
       d="m 100 72 v -24"
       fill="none"
       stroke="#d8d8d8"
       stroke-linejoin="round"
       stroke-width="1.00157"
       id="path21" />
    <path
       d="m 83 55 h 24"
       fill="none"
       stroke="#d8d8d8"
       stroke-linejoin="round"
       stroke-width="1.00157"
       id="path22" />
    <path
       d="m 83 65 h 24"
       fill="none"
       stroke="#d8d8d8"
       stroke-linejoin="round"
       stroke-width="1.00157"
       id="path23" />
    <path
       d="m 90 104 v -24"
       fill="none"
       stroke="#d8d8d8"
       stroke-linejoin="round"
       stroke-width="1.00157"
       id="path24" />
    <path
       d="m 100 104 v -24"
       fill="none"
       stroke="#d8d8d8"
       stroke-linejoin="round"
       stroke-width="1.00157"
       id="path25" />
    <path
       d="m 83 87 h 24"
       fill="none"
       stroke="#d8d8d8"
       stroke-linejoin="round"
       stroke-width="1.00157"
       id="path26" />
    <path
       d="m 83 97 h 24"
       fill="none"
       stroke="#d8d8d8"
       stroke-linejoin="round"
       stroke-width="1.00157"
       id="path27" />
    <path
       d="m 58 104 v -24"
       fill="none"
       stroke="#d8d8d8"
       stroke-linejoin="round"
       stroke-width="1.00157"
       id="path28" />
    <path
       d="m 68 104 v -24"
       fill="none"
       stroke="#d8d8d8"
       stroke-linejoin="round"
       stroke-width="1.00157"
       id="path29" />
    <path
       d="m 51 87 h 24"
       fill="none"
       stroke="#d8d8d8"
       stroke-linejoin="round"
       stroke-width="1.00157"
       id="path30" />
    <path
       d="m 51 97 h 24"
       fill="none"
       stroke="#d8d8d8"
       stroke-linejoin="round"
       stroke-width="1.00157"
       id="path31" />
    <path
       d="m 26 72 v -24"
       fill="none"
       stroke="#d8d8d8"
       stroke-linejoin="round"
       stroke-width="1.00157"
       id="path32" />
    <path
       d="m 36 72 v -24"
       fill="none"
       stroke="#d8d8d8"
       stroke-linejoin="round"
       stroke-width="1.00157"
       id="path33" />
    <path
       d="m 19 55 h 24"
       fill="none"
       stroke="#d8d8d8"
       stroke-linejoin="round"
       stroke-width="1.00157"
       id="path34" />
    <path
       d="m 19 65 h 24"
       fill="none"
       stroke="#d8d8d8"
       stroke-linejoin="round"
       stroke-width="1.00157"
       id="path35" />
    <path
       d="m 26 104 v -24"
       fill="none"
       stroke="#d8d8d8"
       stroke-linejoin="round"
       stroke-width="1.00157"
       id="path36" />
    <path
       d="m 36 104 v -24"
       fill="none"
       stroke="#d8d8d8"
       stroke-linejoin="round"
       stroke-width="1.00157"
       id="path37" />
    <path
       d="m 19 87 h 24"
       fill="none"
       stroke="#d8d8d8"
       stroke-linejoin="round"
       stroke-width="1.00157"
       id="path38" />
    <path
       d="m 19 97 h 24"
       fill="none"
       stroke="#d8d8d8"
       stroke-linejoin="round"
       stroke-width="1.00157"
       id="path39" />
    <path
       d="m 34 70 c 0 1.65625 -1.34375 3 -3 3 s -3 -1.34375 -3 -3 s 1.34375 -3 3 -3 s 3 1.34375 3 3 z m 0 0"
       fill="#ffffff"
       stroke="#1a5fb4"
       stroke-linejoin="round"
       stroke-width="1.00157"
       id="path40"
       style="stroke-width:1.5;stroke-dasharray:none" />
    <path
       d="m 88 102 c 0 1.65625 -1.34375 3 -3 3 s -3 -1.34375 -3 -3 s 1.34375 -3 3 -3 s 3 1.34375 3 3 z m 0 0"
       fill="#ffffff"
       stroke="#1a5fb4"
       stroke-linejoin="round"
       stroke-width="1.00157"
       id="path41"
       style="stroke-width:1.5;stroke-dasharray:none" />
    <path
       d="m 108 38 c 0 1.65625 -1.34375 3 -3 3 s -3 -1.34375 -3 -3 s 1.34375 -3 3 -3 s 3 1.34375 3 3 z m 0 0"
       fill="#ffffff"
       stroke="#1a5fb4"
       stroke-linejoin="round"
       stroke-width="1.00157"
       id="path42"
       style="stroke-width:1.5;stroke-dasharray:none" />
    <path
       d="m 92 57 l 6 6"
       fill="#62a0ea"
       stroke="#c01c28"
       stroke-width="1.00157"
       id="path43"
       style="stroke-width:1.5;stroke-dasharray:none" />
    <path
       d="m 92 63 l 6 -6"
       fill="#62a0ea"
       stroke="#c01c28"
       stroke-width="1.00157"
       id="path44"
       style="stroke-width:1.5;stroke-dasharray:none" />
    <path
       d="m 28 99 l 6 6"
       fill="#62a0ea"
       stroke="#c01c28"
       stroke-width="1.00157"
       id="path45"
       style="stroke-width:1.5;stroke-dasharray:none" />
    <path
       d="m 28 105 l 6 -6"
       fill="#62a0ea"
       stroke="#c01c28"
       stroke-width="1.00157"
       id="path46"
       style="stroke-width:1.5;stroke-dasharray:none" />
    <path
       d="m 82 15 l 6 6"
       fill="#62a0ea"
       stroke="#c01c28"
       stroke-width="1.00157"
       id="path47"
       style="stroke-width:1.5;stroke-dasharray:none" />
    <path
       d="m 82 21 l 6 -6"
       fill="#62a0ea"
       stroke="#c01c28"
       stroke-width="1.00157"
       id="path48"
       style="stroke-width:1.5;stroke-dasharray:none" />
    <path
       d="m 102 89 l 6 6"
       fill="#62a0ea"
       stroke="#c01c28"
       stroke-width="1.00157"
       id="path49"
       style="stroke-width:1.5;stroke-dasharray:none" />
    <path
       d="m 102 95 l 6 -6"
       fill="#62a0ea"
       stroke="#c01c28"
       stroke-width="1.00157"
       id="path50"
       style="stroke-width:1.5;stroke-dasharray:none" />
    <path
       d="m 56 28 c 0 1.65625 -1.34375 3 -3 3 s -3 -1.34375 -3 -3 s 1.34375 -3 3 -3 s 3 1.34375 3 3 z m 0 0"
       fill="#ffffff"
       stroke="#1a5fb4"
       stroke-linejoin="round"
       stroke-width="1.00157"
       id="path51"
       style="stroke-width:1.5;stroke-dasharray:none" />
    <path
       d="m 50 79 l 6 6"
       fill="#62a0ea"
       stroke="#c01c28"
       stroke-width="1.00157"
       id="path52"
       style="stroke-width:1.5;stroke-dasharray:none" />
    <path
       d="m 50 85 l 6 -6"
       fill="#62a0ea"
       stroke="#c01c28"
       stroke-width="1.00157"
       id="path53"
       style="stroke-width:1.5;stroke-dasharray:none" />
    <path
       d="m 66 92 c 0 1.65625 -1.34375 3 -3 3 s -3 -1.34375 -3 -3 s 1.34375 -3 3 -3 s 3 1.34375 3 3 z m 0 0"
       fill="#ffffff"
       stroke="#1a5fb4"
       stroke-linejoin="round"
       stroke-width="1.00157"
       id="path54"
       style="stroke-width:1.5;stroke-dasharray:none" />
    <path
       d="m 52 48 l 24 24"
       fill="#62a0ea"
       stroke="#c01c28"
       stroke-width="4.00628"
       id="path55" />
    <path
       d="m 52 72 l 24 -24"
       fill="#62a0ea"
       stroke="#c01c28"
       stroke-width="4.00628"
       id="path56" />
    <path
       d="m 42.996094 28 c 0 6.628906 -5.371094 12 -12 12 c -6.625 0 -12 -5.371094 -12 -12 s 5.375 -12 12 -12 c 6.628906 0 12 5.371094 12 12 z m 0 0"
       fill="#ffffff"
       stroke="#1a5fb4"
       stroke-linejoin="round"
       stroke-width="4.00628"
       id="path57" />
  </g>
</svg>
